<svg xmlns="http://www.w3.org/2000/svg" xmlns:xlink="http://www.w3.org/1999/xlink" fill="none" version="1.1" width="315" height="245" viewBox="0 0 315 245" preserveAspectRatio="xMidYMid meet" role="img" aria-labelledby="ontotwin-logo-title">
  <title id="ontotwin-logo-title">OntoTwin Nexus</title>
  <defs>
    <linearGradient x1="0.5" y1="0" x2="0.5" y2="1" id="master_svg0_21_1897">
      <stop offset="0%" stop-color="#002CFC" stop-opacity="1" />
      <stop offset="100%" stop-color="#2D5EFF" stop-opacity="1" />
    </linearGradient>
    <linearGradient x1="0.08758366852998734" y1="0.803225576877594" x2="1.0020506878689743" y2="0.6288516718467205" id="master_svg1_21_1933">
      <stop offset="0%" stop-color="#008CFF" stop-opacity="1" />
      <stop offset="99.99999403953552%" stop-color="#3EC2FF" stop-opacity="1" />
    </linearGradient>
    <linearGradient x1="0.08758366852998734" y1="0.803225576877594" x2="0.14029964106814471" y2="0.04969799052015833" id="master_svg2_33_1445">
      <stop offset="0%" stop-color="#3EC2FF" stop-opacity="1" />
      <stop offset="99.99999403953552%" stop-color="#008CFF" stop-opacity="1" />
    </linearGradient>
  </defs>
  <path d="M249.67889785766602,36.757982511247974L279.112285857666,60.304693511247976L263.41447885766604,90.22863651124797L314.922916857666,57.85191151124798L249.67889785766602,36.757982511247974Z" fill="#009DFF" fill-opacity="1" transform="matrix(0.9292860627174377,-0.3693609833717346,0.3693609833717346,0.9292860627174377,4.078813356770695,94.82094490981231)" />
  <g>
    <path d="M104.32702003601074,244.25277549189317L83.69604303601074,232.34147549189316L83.69604303601074,187.18035549189315Q106.98311003601074,169.92141549189316,130.89755003601076,153.54069549189316L130.89755003601076,231.61427549189315L109.00702003601074,244.25277549189317Q108.74137003601074,244.40617549189315,108.45798003601074,244.52354549189317Q108.17459003601074,244.64094549189315,107.87830003601074,244.72031549189316Q107.58201003601074,244.79969549189317,107.27789003601075,244.83973549189315Q106.97377003601075,244.87977549189316,106.66702003601074,244.87977549189316Q106.36027003601075,244.87977549189316,106.05617003601074,244.83973549189315Q105.75204003601074,244.79971549189315,105.45576003601074,244.72033549189317Q105.15947003601075,244.64094549189315,104.87607003601074,244.52355549189315Q104.59268003601075,244.40617549189315,104.32702003601074,244.25277549189317ZM130.89755003601076,111.92033549189316Q107.10969003601075,123.79462549189316,83.69604303601074,135.17040549189315L83.69604303601074,62.32421649189316L83.69655403601074,12.538019491893161L104.32702003601074,0.6270135118931611Q104.59268003601075,0.4736418818931611,104.87607003601074,0.3562563118931611Q105.15947003601075,0.23887073189316108,105.45576003601074,0.1594797218931611Q105.75204003601074,0.08008870789316108,106.05616003601074,0.040050680893161085Q106.36027003601075,0.000012646723161088223,106.66702003601074,0.000012646723161088223Q106.97377003601075,0.000012646723161088223,107.27789003601075,0.040050680893161085Q107.58201003601074,0.08008871489316109,107.87830003601074,0.1594797318931611Q108.17459003601074,0.2388707518931611,108.45798003601074,0.3562563118931611Q108.74137003601074,0.4736418818931611,109.00702003601074,0.6270135118931611L130.89755003601076,13.26551949189316L130.89755003601076,111.92033549189316ZM172.44092003601074,126.04957549189317L172.44092003601074,207.62919549189317L210.99006003601073,185.37283549189317Q211.25572003601073,185.21946549189317,211.49908003601075,185.03272549189316Q211.74244003601075,184.84599549189315,211.95935003601073,184.62910549189317Q212.17625003601074,184.41219549189316,212.36297003601075,184.16883549189316Q212.54971003601074,183.92548549189317,212.70306003601075,183.65983549189315Q212.85644003601075,183.39419549189316,212.97381003601075,183.11080549189316Q213.09122003601075,182.82740549189316,213.17061003601074,182.53111549189316Q213.25000003601073,182.23483549189316,213.29002003601073,181.93070549189315Q213.33008003601074,181.62659549189317,213.33006003601074,181.31983549189317L213.33006003601074,100.79560549189316Q192.67094003601073,113.12196549189316,172.44092003601074,126.04957549189317ZM213.33006003601074,72.13541949189316Q192.75271003601074,81.30280149189316,172.44092003601074,91.17716749189316L172.44092003601074,87.25024949189316L172.44136003601074,37.25084849189316L210.99006003601073,59.50695649189316Q211.25572003601073,59.66032949189316,211.49908003601075,59.84706349189316Q211.74244003601075,60.03379649189316,211.95935003601073,60.25070049189316Q212.17625003601074,60.46759949189316,212.36297003601075,60.71095449189316Q212.54971003601074,60.95430549189316,212.70306003601075,61.21995349189316Q212.85644003601075,61.48560149189316,212.97381003601075,61.76899949189316Q213.09122003601075,62.05239349189316,213.17061003601074,62.34868449189316Q213.25000003601073,62.64497549189316,213.29002003601073,62.94909449189316Q213.33008003601074,63.253210491893164,213.33006003601074,63.559949491893164L213.33006003601074,72.13541949189316ZM42.15267803601074,36.52338949189316L42.15267803601074,208.35639549189315L2.3439731360107423,185.37283549189317Q2.078325736010742,185.21946549189317,1.8349701360107422,185.03272549189316Q1.5916144360107423,184.84599549189315,1.3747142360107423,184.62910549189317Q1.1578140360107423,184.41219549189316,0.9710806060107422,184.16883549189316Q0.7843471760107422,183.92548549189317,0.6309755460107422,183.65983549189315Q0.47760397601074217,183.39419549189316,0.36021843601074216,183.11080549189316Q0.24283289601074218,182.82740549189316,0.1634419260107422,182.53111549189316Q0.08405094601074219,182.23483549189316,0.04401293401074219,181.93070549189315Q0.0039749145507421875,181.62659549189317,0.0039749145507421875,181.31983549189317L0.003971099850742187,63.55995749189316Q0.003971099850742187,63.25321749189316,0.044009119010742184,62.949102491893164Q0.08404713901074219,62.644983491893164,0.16343811601074218,62.34869249189316Q0.24282908601074218,62.05239649189316,0.3602146160107422,61.76900249189316Q0.4776001560107422,61.485609491893165,0.6309717260107421,61.21995749189316Q0.7843433660107422,60.95431349189316,0.9710767860107422,60.71095849189316Q1.1578102360107423,60.46760349189316,1.3747103360107422,60.25070349189316Q1.5916105360107422,60.033804491893164,1.8349663360107422,59.84707049189316Q2.078321936010742,59.66033349189316,2.3439693360107423,59.50695949189316L42.15267803601074,36.52338949189316Z" fill-rule="evenodd" fill="url(#master_svg0_21_1897)" fill-opacity="1" />
  </g>
  <path d="M25.482280731201172,209.62515511104044Q86.04689773120117,174.43163011104045,148.6590107312012,144.95012811104044Q211.27113073120117,115.46862511104045,275.93075073120116,91.69915511104045Q212.60223073120116,105.36752511104045,151.32122073120115,125.95134811104046Q90.04021073120117,146.53516911104046,31.713899131201174,167.55488311104045L25.482280731201172,209.62515511104044Z" fill="url(#master_svg1_21_1933)" fill-opacity="1" transform="matrix(0.9903290271759033,-0.13873852789402008,0.13873852789402008,0.9903290271759033,-12.475767344783712,4.422194153100506)" />
  <g>
    <path d="M53.68562126159691,78.14865104882813L83.65747805712891,59.75201804882813L83.65747805712891,12.660675048828125L53.68562126159691,31.296898048828126L53.68562126159691,78.14865104882813Z" fill-rule="evenodd" fill="#0734FC" fill-opacity="1" />
  </g>
  <g>
    <path d="M142.28131675720238,102.91779340820312L172.57751455273439,84.32208640820312L172.57751455273439,37.230743408203125L142.28131675720238,56.068637408203124L142.28131675720238,102.91779340820312Z" fill-rule="evenodd" fill="#0734FC" fill-opacity="1" />
  </g>
  <path d="M42.149967,208.3578975L42.149967,36.5234375L2.339999,59.5077325C0.89200252,60.3437345,0,61.8887315,0,63.5607335L0.0000044631938,181.3205975C0.0000044631938,182.9926175,0.89200753,184.5376175,2.3400035,185.3735975L42.149967,208.3578975Z" fill-rule="evenodd" fill="url(#master_svg2_33_1445)" fill-opacity="1" />
</svg>
